<svg width="56" height="56" viewBox="0 0 56 56" fill="none" xmlns="http://www.w3.org/2000/svg">
<g clip-path="url(#clip0_50_268)">
<rect width="57" height="57" fill="url(#paint0_linear_50_268)"/>
<path d="M21 22L21.4875 21.7562C21.6415 21.6792 21.771 21.5609 21.8615 21.4144C21.9521 21.268 22 21.0992 22 20.9271V20H19.7135C19.5542 20 19.3964 20.0314 19.2491 20.0924C19.1019 20.1534 18.9681 20.2427 18.8554 20.3554C18.7427 20.4681 18.6534 20.6019 18.5924 20.7491C18.5314 20.8964 18.5 21.0542 18.5 21.2135C18.5 21.4019 18.5439 21.5877 18.6281 21.7562L19 22.5H20.5L21 22Z" fill="#B36F42"/>
<path d="M19 22L19.5 21.5C19.5657 21.6313 19.6565 21.7484 19.7675 21.8446C19.8784 21.9408 20.0072 22.0142 20.1464 22.0607C20.2857 22.1071 20.4328 22.1256 20.5793 22.1152C20.7257 22.1048 20.8687 22.0657 21 22V23C21 23.2652 20.8946 23.5196 20.7071 23.7071C20.5196 23.8946 20.2652 24 20 24C19.7348 24 19.4804 23.8946 19.2929 23.7071C19.1054 23.5196 19 23.2652 19 23V22Z" fill="#FFCEB6"/>
<path d="M26.5 27V28.5L25.5 30H23.5L22.5 28.5V27H26.5Z" fill="#F7C04A"/>
<path d="M18.5 33.5319C18.5001 34.1587 18.2868 34.7669 17.895 35.2563L16.5 37V39.5L16 40L13.5 37.5L14.1875 36.5375L16 34L14.6619 30.8775C14.555 30.6285 14.5 30.3604 14.5 30.0894V29.0725H17.5V30.5L18.3025 32.5063C18.4327 32.8326 18.4997 33.1806 18.5 33.5319Z" fill="#445496"/>
<path d="M17.9998 28.5L19.8785 26.6213C20.1897 26.3101 20.3782 25.8971 20.4094 25.458C20.4406 25.019 20.3124 24.5835 20.0483 24.2314C19.878 24.0043 19.6572 23.82 19.4033 23.693C19.1494 23.5661 18.8694 23.5 18.5856 23.5C18.1091 23.5 17.642 23.6327 17.2366 23.8832C16.8313 24.1337 16.5037 24.4922 16.2906 24.9184L14.7559 27.9878C14.6743 28.1509 14.6114 28.3228 14.5684 28.5H17.9998Z" fill="#ED6445"/>
<path d="M25.5 27V27.5H24L22.7794 28.415C22.2609 28.8038 21.6279 29.0093 20.9799 28.9992C20.3319 28.9892 19.7056 28.7641 19.1994 28.3594L19.1406 28.3125L20.6406 26.3125L21.5 27L22.4731 26.3513C22.8755 26.0833 23.3583 25.9628 23.8395 26.0105C24.3206 26.0581 24.7704 26.2708 25.1125 26.6125L25.5 27Z" fill="#FFCEB6"/>
<path d="M23.5 30H25.5V36H23.5V30Z" fill="#F7DFA1"/>
<path d="M23.5 38.5V36H26.5L28 37V38.5H23.5Z" fill="#F7C04A"/>
<path d="M25.5 39.5C26.0523 39.5 26.5 39.0523 26.5 38.5C26.5 37.9477 26.0523 37.5 25.5 37.5C24.9477 37.5 24.5 37.9477 24.5 38.5C24.5 39.0523 24.9477 39.5 25.5 39.5Z" fill="#8796C4"/>
<path d="M25.5 40C25.2033 40 24.9133 39.912 24.6666 39.7472C24.42 39.5824 24.2277 39.3481 24.1142 39.074C24.0006 38.7999 23.9709 38.4983 24.0288 38.2074C24.0867 37.9164 24.2296 37.6491 24.4393 37.4393C24.6491 37.2296 24.9164 37.0867 25.2074 37.0288C25.4983 36.9709 25.7999 37.0007 26.074 37.1142C26.3481 37.2277 26.5824 37.42 26.7472 37.6666C26.912 37.9133 27 38.2033 27 38.5C26.9995 38.8977 26.8414 39.279 26.5602 39.5602C26.2789 39.8414 25.8977 39.9996 25.5 40ZM25.5 38C25.4011 38 25.3044 38.0293 25.2222 38.0843C25.14 38.1392 25.0759 38.2173 25.0381 38.3087C25.0002 38.4 24.9903 38.5006 25.0096 38.5976C25.0289 38.6945 25.0765 38.7836 25.1464 38.8536C25.2164 38.9235 25.3055 38.9711 25.4025 38.9904C25.4994 39.0097 25.6 38.9998 25.6913 38.9619C25.7827 38.9241 25.8608 38.86 25.9157 38.7778C25.9707 38.6956 26 38.5989 26 38.5C25.9998 38.3674 25.9471 38.2404 25.8534 38.1466C25.7596 38.0529 25.6326 38.0002 25.5 38Z" fill="#56679C"/>
<path d="M30.5 36H42.5V38.5H30.5V36Z" fill="#B36F42"/>
<path d="M30.5 38.5H32.5V40H30.5V38.5Z" fill="#9E593C"/>
<path d="M40.5 38.5H42.5V40H40.5V38.5Z" fill="#9E593C"/>
<path d="M28 37H30.5V38.5H28V37Z" fill="#F7DFA1"/>
<path d="M30.5 31H36.5V36H30.5V31Z" fill="#F7C04A"/>
<path d="M33 31.5H34V33H33V31.5Z" fill="#F7DFA1"/>
<path d="M36.5 31H42.5V36H36.5V31Z" fill="#F7C04A"/>
<path d="M39 31.5H40V33H39V31.5Z" fill="#F7DFA1"/>
<path d="M30.5 26H36.5V31H30.5V26Z" fill="#F7C04A"/>
<path d="M33 26.5H34V28H33V26.5Z" fill="#F7DFA1"/>
<path d="M36.5 26H42.5V31H36.5V26Z" fill="#F7C04A"/>
<path d="M39 26.5H40V28H39V26.5Z" fill="#F7DFA1"/>
<path d="M30.5 21H36.5V26H30.5V21Z" fill="#F7C04A"/>
<path d="M33 21.5H34V23H33V21.5Z" fill="#F7DFA1"/>
<path d="M36.5 21H42.5V26H36.5V21Z" fill="#F7C04A"/>
<path d="M39 21.5H40V23H39V21.5Z" fill="#F7DFA1"/>
<path d="M30.5 16H36.5V21H30.5V16Z" fill="#F7C04A"/>
<path d="M33 16H34V17.5H33V16Z" fill="#F7DFA1"/>
<path d="M36.5 16H42.5V21H36.5V16Z" fill="#F7C04A"/>
<path d="M39 16H40V17.5H39V16Z" fill="#F7DFA1"/>
<path d="M21.5 38V32.6606C21.5 32.3081 21.4068 31.9617 21.2298 31.6568C21.0528 31.3518 20.7984 31.0991 20.4923 30.9242L18 29.5V28.5H14.5686C14.523 28.6875 14.5 28.8797 14.5 29.0727C14.5 29.5053 14.6157 29.93 14.8351 30.3028C15.0545 30.6757 15.3696 30.9831 15.7477 31.1932L19 33L19.5 38.5L21.5 38Z" fill="#445496"/>
<path d="M16.4269 31.0067C16.1855 30.8725 15.8811 30.9594 15.7469 31.2007C15.6127 31.442 15.6996 31.7465 15.9409 31.8807L17.6707 32.8425C17.912 32.9767 18.2164 32.8899 18.3506 32.6485C18.4848 32.4072 18.398 32.1028 18.1566 31.9686L16.4269 31.0067Z" fill="#2C3E91"/>
<path d="M21.5 38L19.5 38.5V40H23V39L21.5 38Z" fill="#6D7EB3"/>
<path d="M20.6406 26.3125L19.1406 28.3125L17.5 27L19 25L20.6406 26.3125Z" fill="#ED6445"/>
<path d="M19.0039 25.0028L19.0039 25.0028C18.8313 25.2185 18.8662 25.5332 19.0819 25.7058L19.9418 26.3939C20.1575 26.5665 20.4722 26.5316 20.6448 26.3159L20.6448 26.3159C20.8174 26.1002 20.7825 25.7855 20.5668 25.6129L19.7069 24.9248C19.4913 24.7522 19.1765 24.7871 19.0039 25.0028Z" fill="#DE402F"/>
<path d="M17.5039 27.0036L17.5039 27.0036C17.3313 27.2193 17.3662 27.534 17.5819 27.7066L18.4418 28.3947C18.6575 28.5673 18.9722 28.5324 19.1448 28.3167L19.1448 28.3167C19.3174 28.101 19.2825 27.7863 19.0668 27.6137L18.2069 26.9256C17.9913 26.753 17.6765 26.7879 17.5039 27.0036Z" fill="#DE402F"/>
<path d="M16.5 37V39.5L16 40L13.5 37.5L14.1875 36.5375L16.5 37Z" fill="#6D7EB3"/>
<path d="M42.5 21.5V20.5H37V16H36V20.5H30.5V21.5H36V25.5H30.5V26.5H36V30.5H30.5V31.5H36V36H37V31.5H42.5V30.5H37V26.5H42.5V25.5H37V21.5H42.5Z" fill="#F5A431"/>
<path d="M0 -0.890625H-0.890625V0V21.375V23.5252L0.629767 22.0048L22.0048 0.629767L23.5252 -0.890625H21.375H0Z" fill="#57576A" stroke="#20202E" stroke-width="1.78125"/>
<path d="M58.7812 59.6719L59.6719 59.6719L59.6719 58.7813L59.6719 37.4063L59.6719 35.2561L58.1515 36.7765L36.7765 58.1515L35.2561 59.6719L37.4062 59.6719L58.7812 59.6719Z" fill="#57576A" stroke="#20202E" stroke-width="1.78125"/>
</g>
<defs>
<linearGradient id="paint0_linear_50_268" x1="43.4951" y1="17.3036" x2="13.7325" y2="18.7197" gradientUnits="userSpaceOnUse">
<stop stop-color="#7B61FF"/>
<stop offset="1" stop-color="#AA82FF"/>
</linearGradient>
<clipPath id="clip0_50_268">
<rect width="56" height="56" fill="white"/>
</clipPath>
</defs>
</svg>
