<svg width="40" height="40" viewBox="0 0 40 40" fill="none" xmlns="http://www.w3.org/2000/svg">
<path d="M20 40C8.93953 40 0 31.0634 0 20C0 8.93945 8.93672 0 20 0C31.0605 0 40 8.93664 40 20C40 31.0605 31.0634 40 20 40Z" fill="#30313F"/>
<g clip-path="url(#clip0_54_139)">
<path d="M28.2119 15.7188C25.5702 11.3787 21.5908 14.3982 21.5908 14.3982C21.3327 14.5932 20.8568 14.7536 20.5335 14.7543L19.4676 14.7551C19.1442 14.7555 18.6683 14.5951 18.4106 14.4C18.4106 14.4 14.4308 11.3799 11.7888 15.7199C9.14759 20.0585 10.212 24.7834 10.212 24.7834C10.3985 25.9403 11.0131 26.7123 12.173 26.6154C13.3295 26.5188 15.8399 23.4997 15.8399 23.4997C16.0472 23.251 16.4817 23.0477 16.8043 23.0477L23.1945 23.0466C23.5175 23.0466 23.9516 23.2498 24.1586 23.4986C24.1586 23.4986 26.6693 26.5177 27.8277 26.6143C28.9861 26.7112 29.6022 25.9385 29.7876 24.7823C29.7872 24.7823 30.8535 20.0581 28.2119 15.7188ZM17.5987 19.2514H16.2285V20.572C16.2285 20.572 15.9383 20.7936 15.4893 20.788C15.041 20.7813 14.8381 20.5463 14.8381 20.5463V19.2518H13.544C13.544 19.2518 13.3825 19.0862 13.3392 18.6502C13.2967 18.2142 13.5179 17.8618 13.5179 17.8618H14.8885V16.4916C14.8885 16.4916 15.1704 16.3405 15.5758 16.3521C15.9816 16.3647 16.2788 16.5173 16.2788 16.5173L16.2732 17.8614H17.5674C17.5674 17.8614 17.7934 18.1516 17.812 18.5021C17.8307 18.8531 17.5987 19.2514 17.5987 19.2514ZM23.8837 20.7566C23.2836 20.7566 22.7999 20.2714 22.7999 19.6721C22.7999 19.0716 23.2836 18.5876 23.8837 18.5876C24.4812 18.5876 24.9686 19.0716 24.9686 19.6721C24.9686 20.2718 24.4812 20.7566 23.8837 20.7566ZM23.8837 17.7726C23.2836 17.7726 22.7999 17.2878 22.7999 16.6885C22.7999 16.088 23.2836 15.6039 23.8837 15.6039C24.4812 15.6039 24.9686 16.088 24.9686 16.6885C24.9686 17.2882 24.4812 17.7726 23.8837 17.7726ZM26.5847 19.3745C25.9846 19.3745 25.5009 18.8896 25.5009 18.2899C25.5009 17.6899 25.9846 17.2054 26.5847 17.2054C27.1821 17.2054 27.6696 17.6899 27.6696 18.2899C27.6696 18.8896 27.1821 19.3745 26.5847 19.3745Z" fill="white"/>
</g>
<defs>
<clipPath id="clip0_54_139">
<rect width="20" height="20" fill="white" transform="translate(10 10)"/>
</clipPath>
</defs>
</svg>
