<svg width="56" height="56" viewBox="0 0 56 56" fill="none" xmlns="http://www.w3.org/2000/svg">
<g clip-path="url(#clip0_50_264)">
<rect width="57" height="57" fill="url(#paint0_linear_50_264)"/>
<g clip-path="url(#clip1_50_264)">
<path d="M21.6801 17.2709V17.1361C21.6801 16.6016 21.2469 16.1683 20.7124 16.1683H18.8877C18.3532 16.1683 17.9199 16.6016 17.9199 17.1361V17.2027L21.6801 17.2709Z" fill="#EDC963"/>
<path d="M38.0805 17.2027V17.1361C38.0805 16.6016 37.6472 16.1683 37.1127 16.1683H35.2881C34.7536 16.1683 34.3203 16.6016 34.3203 17.1361V17.2709L38.0805 17.2027Z" fill="#EDC963"/>
<path d="M38.0805 18.364V17.2027C37.5203 17.0114 36.9199 16.907 36.2948 16.907C35.5989 16.907 34.9334 17.0359 34.3203 17.2709V18.4322L38.0805 18.364Z" fill="#E7B93E"/>
<path d="M19.7056 18.0683C20.4015 18.0683 21.067 18.1972 21.6801 18.4322V17.1361C21.6801 16.6016 21.2469 16.1683 20.7124 16.1683H18.8877C18.3532 16.1683 17.9199 16.6016 17.9199 17.1361V18.364C18.4801 18.1727 19.0805 18.0683 19.7056 18.0683Z" fill="#EDC963"/>
<path d="M21.6801 18.4322V17.2709C21.067 17.0359 20.4015 16.907 19.7056 16.907C19.0805 16.907 18.4801 17.0115 17.9199 17.2027V18.364L21.6801 18.4322Z" fill="#E7B93E"/>
<path d="M14.1126 38.8585C17.0111 40.1437 18.4293 38.2173 19.0634 36.3369L20.5966 31.772C20.5966 31.772 20.5967 31.772 20.5968 31.7721L20.5967 31.772L20.9308 31.3578C20.9308 31.3578 21.8764 31.8695 22.6798 31.8695C23.6379 31.8695 24.5064 31.4885 25.1438 30.8704C25.2029 30.8131 25.2828 30.7824 25.365 30.7824H30.6337C30.7159 30.7824 30.7958 30.8131 30.8549 30.8704C31.4923 31.4885 32.3609 31.8695 33.3189 31.8695C34.1223 31.8695 35.0679 31.3578 35.0679 31.3578L35.4021 31.772L36.9344 36.3346C37.5673 38.2166 40.052 39.7293 41.886 38.9681C42.9951 38.5077 43.9496 37.122 43.9496 35.8235L41.7703 22.8459L41.7689 22.847C41.4033 20.1487 39.092 18.0683 36.2934 18.0683C34.7137 18.0683 33.2901 18.732 32.2831 19.7948H23.7155C22.7086 18.732 21.2849 18.0683 19.7052 18.0683C16.9066 18.0683 14.5953 20.1487 14.2298 22.847L14.2283 22.8459L12.0469 35.8363L12.0491 35.8234C11.9993 37.4225 13.0034 38.3982 14.1126 38.8585Z" fill="#454D58"/>
<path d="M14.1133 38.4074C13.0041 37.947 12.2448 36.9563 12.0498 35.8234L12.0476 35.8364C11.7834 37.4096 12.6398 38.9571 14.1133 39.5687C15.9476 40.33 18.0429 39.3775 18.6753 37.4947L19.0641 36.3369C18.4299 38.2173 15.9465 39.1683 14.1133 38.4074Z" fill="#3C434C"/>
<path d="M43.9507 35.8235C43.7557 36.9563 42.9963 37.9471 41.8872 38.4075C40.0532 39.1687 37.5684 38.2166 36.9355 36.3346L37.3252 37.4948C37.9575 39.3776 40.0528 40.3301 41.8871 39.5688C43.3605 38.9572 44.217 37.4097 43.9528 35.8365L43.9507 35.8235Z" fill="#3C434C"/>
<path d="M35.1519 31.0242C35.0839 30.8217 34.8408 30.7397 34.6646 30.8604C34.266 31.1335 33.9315 31.2889 33.3199 31.2889C32.3618 31.2889 31.4933 30.9078 30.8559 30.2897C30.7968 30.2324 30.717 30.2017 30.6347 30.2017H25.366C25.2838 30.2017 25.2039 30.2324 25.1448 30.2897C24.5074 30.9078 23.6388 31.2889 22.6808 31.2889C22.0692 31.2889 21.7347 31.1335 21.3362 30.8604C21.16 30.7397 20.9169 30.8217 20.8488 31.0242L20.5977 31.772C21.1823 32.1981 21.9019 32.4502 22.6807 32.4502C23.6834 32.4502 24.5881 32.0328 25.2323 31.363H30.7682C31.4125 32.0328 32.3172 32.4502 33.3198 32.4502C34.0987 32.4502 34.8183 32.1981 35.403 31.7719L35.1519 31.0242Z" fill="#3C434C"/>
<path d="M21.4023 28.3694C21.4023 28.9451 22.1715 29.8857 22.8032 29.8857C23.4349 29.8857 24.2041 28.9407 24.2041 28.3694C23.9762 27.8201 23.4349 27.4337 22.8032 27.4337C22.1715 27.4337 21.6302 27.8201 21.4023 28.3694Z" fill="#DAD8DB"/>
<path d="M21.3643 22.6954H20.7709V22.102C20.7709 21.535 20.3113 21.0754 19.7443 21.0754C19.1773 21.0754 18.7177 21.535 18.7177 22.102V22.6954H18.1243C17.5573 22.6954 17.0977 23.155 17.0977 23.722C17.0977 24.289 17.5573 24.7486 18.1243 24.7486H18.7177V25.342C18.7177 25.909 19.1773 26.3686 19.7443 26.3686C20.3113 26.3686 20.7709 25.909 20.7709 25.342V24.7486H21.3643C21.9313 24.7486 22.391 24.289 22.391 23.722C22.3909 23.155 21.9313 22.6954 21.3643 22.6954Z" fill="#B3E59F"/>
<path d="M21.3643 22.6954H20.7709V22.102C20.7709 21.535 20.3113 21.0754 19.7443 21.0754C19.1773 21.0754 18.7177 21.535 18.7177 22.102V22.6954H18.1243C17.5573 22.6954 17.0977 23.155 17.0977 23.722C17.0977 24.289 17.5573 24.7486 18.1243 24.7486H18.7177V25.342C18.7177 25.909 19.1773 26.3686 19.7443 26.3686C20.3113 26.3686 20.7709 25.909 20.7709 25.342V24.7486H21.3643C21.9313 24.7486 22.391 24.289 22.391 23.722C22.3909 23.155 21.9313 22.6954 21.3643 22.6954Z" fill="#DAD8DB"/>
<path d="M36.5874 20.4146C36.0763 20.4146 35.6582 20.8327 35.6582 21.3437C35.6582 21.8548 36.0763 22.2729 36.5874 22.2729C37.0985 22.2729 37.5166 21.8548 37.5166 21.3437C37.5166 20.8327 37.0985 20.4146 36.5874 20.4146Z" fill="#C4DBF9"/>
<path d="M36.5874 20.4146C36.0763 20.4146 35.6582 20.8327 35.6582 21.3437C35.6582 21.8548 36.0763 22.2729 36.5874 22.2729C37.0985 22.2729 37.5166 21.8548 37.5166 21.3437C37.5166 20.8327 37.0985 20.4146 36.5874 20.4146Z" fill="#B3E59F"/>
<path d="M36.5874 25.1711C36.0763 25.1711 35.6582 25.5892 35.6582 26.1002C35.6582 26.6113 36.0763 27.0294 36.5874 27.0294C37.0985 27.0294 37.5166 26.6113 37.5166 26.1002C37.5166 25.5892 37.0985 25.1711 36.5874 25.1711Z" fill="#BED8FB"/>
<path d="M39.8935 23.722C39.8935 23.2109 39.4754 22.7928 38.9643 22.7928C38.4533 22.7928 38.0352 23.2109 38.0352 23.722C38.0352 24.2331 38.4533 24.6512 38.9643 24.6512C39.4754 24.6511 39.8935 24.233 39.8935 23.722Z" fill="#EDC963"/>
<path d="M35.1377 23.722C35.1377 23.2109 34.7195 22.7928 34.2085 22.7928C33.6974 22.7928 33.2793 23.2109 33.2793 23.722C33.2793 24.2331 33.6974 24.6512 34.2085 24.6512C34.7195 24.6511 35.1377 24.233 35.1377 23.722Z" fill="#DF667C"/>
<path d="M25.0056 21.365H30.9925C31.6014 21.365 32.2461 20.363 32.2461 19.7948H23.752C23.7958 20.363 24.3967 21.365 25.0056 21.365Z" fill="#A6AEC4"/>
<path d="M22.8014 29.305C22.1697 29.305 21.6284 28.9186 21.4005 28.3694C21.3263 28.5483 21.2852 28.7443 21.2852 28.95C21.2852 29.7874 21.964 30.4663 22.8015 30.4663C23.6389 30.4663 24.3178 29.7874 24.3178 28.95C24.3178 28.7443 24.2766 28.5483 24.2024 28.3694C23.9744 28.9186 23.4331 29.305 22.8014 29.305Z" fill="#C8C5C9"/>
<path d="M31.7969 28.3694C31.7969 28.9451 32.5661 29.8857 33.1978 29.8857C33.8295 29.8857 34.5987 28.9407 34.5987 28.3694C34.3708 27.8201 33.8295 27.4337 33.1978 27.4337C32.5661 27.4337 32.0247 27.8201 31.7969 28.3694Z" fill="#DAD8DB"/>
<path d="M33.198 29.305C32.5663 29.305 32.025 28.9186 31.797 28.3694C31.7228 28.5483 31.6816 28.7443 31.6816 28.95C31.6816 29.7874 32.3605 30.4663 33.198 30.4663C34.0354 30.4663 34.7143 29.7874 34.7143 28.95C34.7143 28.7443 34.6731 28.5483 34.5989 28.3694C34.371 28.9186 33.8296 29.305 33.198 29.305Z" fill="#C8C5C9"/>
<path d="M30.994 20.7844H25.0071C24.3982 20.7844 23.8892 20.3621 23.7535 19.7948H23.7168V20.6553C23.7168 21.3679 24.2945 21.9456 25.0071 21.9456H30.994C31.7067 21.9456 32.2844 21.3679 32.2844 20.6553V19.7948H32.2477C32.112 20.3621 31.6029 20.7844 30.994 20.7844Z" fill="#959DB0"/>
</g>
<path d="M0 -0.890625H-0.890625V0V21.375V23.5252L0.629767 22.0048L22.0048 0.629767L23.5252 -0.890625H21.375H0Z" fill="#57576A" stroke="#20202E" stroke-width="1.78125"/>
<path d="M58.7812 59.6719L59.6719 59.6719L59.6719 58.7813L59.6719 37.4063L59.6719 35.2561L58.1515 36.7765L36.7765 58.1515L35.2561 59.6719L37.4062 59.6719L58.7812 59.6719Z" fill="#57576A" stroke="#20202E" stroke-width="1.78125"/>
</g>
<defs>
<linearGradient id="paint0_linear_50_264" x1="43.4951" y1="17.3036" x2="13.7325" y2="18.7197" gradientUnits="userSpaceOnUse">
<stop stop-color="#61FFD9"/>
<stop offset="1" stop-color="#82E8FF"/>
</linearGradient>
<clipPath id="clip0_50_264">
<rect width="56" height="56" fill="white"/>
</clipPath>
<clipPath id="clip1_50_264">
<rect width="32" height="32" fill="white" transform="translate(12 12)"/>
</clipPath>
</defs>
</svg>
