<svg width="113" height="32" viewBox="0 0 113 32" fill="none" xmlns="http://www.w3.org/2000/svg">
<g filter="url(#filter0_b_1_22)">
<path fill-rule="evenodd" clip-rule="evenodd" d="M16 32C24.8366 32 32 24.8366 32 16C32 7.16345 24.8366 0 16 0C7.16344 0 0 7.16345 0 16C0 24.8366 7.16344 32 16 32ZM18.4696 12.3621C19.8334 10.9981 19.8334 8.78686 18.4696 7.42293C17.1057 6.05903 14.8944 6.05903 13.5305 7.42293C12.1666 8.78686 12.1666 10.9981 13.5305 12.3621V12.3621C14.8943 13.7259 17.1057 13.7259 18.4696 12.3621V12.3621ZM19.638 18.4696C21.0019 19.8335 23.2132 19.8335 24.5771 18.4696C25.941 17.1057 25.941 14.8944 24.5771 13.5305C23.2132 12.1666 21.0019 12.1666 19.638 13.5305V13.5305C18.2741 14.8944 18.2741 17.1057 19.638 18.4696V18.4696ZM18.4696 24.5771C19.8334 23.2132 19.8334 21.0019 18.4696 19.638V19.638C17.1057 18.2741 14.8943 18.2741 13.5305 19.638V19.638C12.1666 21.0019 12.1666 23.2132 13.5305 24.5771C14.8944 25.941 17.1057 25.941 18.4696 24.5771ZM7.42291 18.4696C6.05904 17.1057 6.05904 14.8944 7.42291 13.5305C8.78686 12.1666 10.9981 12.1666 12.3621 13.5305V13.5305C13.7259 14.8944 13.7259 17.1057 12.3621 18.4696V18.4696C10.9981 19.8335 8.78686 19.8335 7.42291 18.4696Z" fill="white"/>
</g>
<path d="M41.68 23V9H45L48.68 14.92L52.36 9H55.68V23H52.62V13.86L48.68 19.84H48.6L44.7 13.92V23H41.68ZM63.8033 23.24C62.1766 23.24 60.8366 22.7267 59.7833 21.7C58.7299 20.66 58.2033 19.3267 58.2033 17.7V17.66C58.2033 16.1 58.7033 14.78 59.7033 13.7C60.7033 12.62 61.9699 12.08 63.5033 12.08C65.1966 12.08 66.4899 12.64 67.3833 13.76C68.2766 14.88 68.7233 16.26 68.7233 17.9C68.7233 18.0333 68.7099 18.3 68.6833 18.7H61.2233C61.3699 19.38 61.6699 19.9 62.1233 20.26C62.5766 20.62 63.1499 20.8 63.8433 20.8C64.7633 20.8 65.6299 20.4333 66.4433 19.7L68.1833 21.24C67.1033 22.5733 65.6433 23.24 63.8033 23.24ZM61.1833 16.8H65.7633C65.6699 16.1067 65.4233 15.5533 65.0233 15.14C64.6366 14.7267 64.1299 14.52 63.5033 14.52C62.8766 14.52 62.3633 14.7267 61.9633 15.14C61.5633 15.54 61.3033 16.0933 61.1833 16.8ZM75.3889 23.2C74.0556 23.2 72.9089 22.7067 71.9489 21.72C70.9889 20.72 70.5089 19.3667 70.5089 17.66V17.62C70.5089 15.9133 70.9822 14.5667 71.9289 13.58C72.8889 12.58 74.0422 12.08 75.3889 12.08C76.7222 12.08 77.8356 12.6133 78.7289 13.68V8.4H81.7689V23H78.7289V21.46C77.8889 22.62 76.7756 23.2 75.3889 23.2ZM74.3089 19.8C74.8156 20.3467 75.4356 20.62 76.1689 20.62C76.9022 20.62 77.5156 20.3467 78.0089 19.8C78.5156 19.24 78.7689 18.5267 78.7689 17.66V17.62C78.7689 16.7533 78.5156 16.0467 78.0089 15.5C77.5156 14.94 76.9022 14.66 76.1689 14.66C75.4356 14.66 74.8156 14.9333 74.3089 15.48C73.8022 16.0267 73.5489 16.74 73.5489 17.62V17.66C73.5489 18.5267 73.8022 19.24 74.3089 19.8ZM84.625 23V8.4H87.665V23H84.625ZM95.6002 23.24C93.9735 23.24 92.6335 22.7267 91.5802 21.7C90.5268 20.66 90.0002 19.3267 90.0002 17.7V17.66C90.0002 16.1 90.5002 14.78 91.5002 13.7C92.5002 12.62 93.7668 12.08 95.3002 12.08C96.9935 12.08 98.2868 12.64 99.1802 13.76C100.073 14.88 100.52 16.26 100.52 17.9C100.52 18.0333 100.507 18.3 100.48 18.7H93.0202C93.1668 19.38 93.4668 19.9 93.9202 20.26C94.3735 20.62 94.9468 20.8 95.6402 20.8C96.5602 20.8 97.4268 20.4333 98.2402 19.7L99.9802 21.24C98.9002 22.5733 97.4402 23.24 95.6002 23.24ZM92.9802 16.8H97.5602C97.4668 16.1067 97.2202 15.5533 96.8202 15.14C96.4335 14.7267 95.9268 14.52 95.3002 14.52C94.6735 14.52 94.1602 14.7267 93.7602 15.14C93.3602 15.54 93.1002 16.0933 92.9802 16.8ZM106.978 19.58L109.318 12.28H112.478L108.358 23.26C107.958 24.3533 107.491 25.1267 106.958 25.58C106.438 26.0333 105.731 26.26 104.838 26.26C103.878 26.26 102.978 26.0133 102.138 25.52L103.158 23.32C103.625 23.6 104.058 23.74 104.458 23.74C104.725 23.74 104.931 23.6867 105.078 23.58C105.238 23.4867 105.385 23.3067 105.518 23.04L101.318 12.28H104.538L106.978 19.58Z" fill="white"/>
<defs>
<filter id="filter0_b_1_22" x="-4" y="-4" width="40" height="40" filterUnits="userSpaceOnUse" color-interpolation-filters="sRGB">
<feFlood flood-opacity="0" result="BackgroundImageFix"/>
<feGaussianBlur in="BackgroundImage" stdDeviation="2"/>
<feComposite in2="SourceAlpha" operator="in" result="effect1_backgroundBlur_1_22"/>
<feBlend mode="normal" in="SourceGraphic" in2="effect1_backgroundBlur_1_22" result="shape"/>
</filter>
</defs>
</svg>
