<svg width="246" height="38" viewBox="0 0 246 38" fill="none" xmlns="http://www.w3.org/2000/svg">
<path d="M231 1.10938H229.875L230.133 2.20399L238.133 36.204L238.295 36.8906H239H243H244.125L243.867 35.796L235.867 1.79601L235.705 1.10938H235H231Z" fill="#57576A" stroke="#20202E" stroke-width="1.78125"/>
<path d="M222 1.10938H220.875L221.133 2.20399L229.133 36.204L229.295 36.8906H230H234H235.125L234.867 35.796L226.867 1.79601L226.705 1.10938H226H222Z" fill="#57576A" stroke="#20202E" stroke-width="1.78125"/>
<path d="M213 1.10938H211.875L212.133 2.20399L220.133 36.204L220.295 36.8906H221H225H226.125L225.867 35.796L217.867 1.79601L217.705 1.10938H217H213Z" fill="#57576A" stroke="#20202E" stroke-width="1.78125"/>
<path d="M2 1.10938H1.10938V2V36V36.8906H2H216H217.137L216.865 35.7866L208.473 1.78657L208.305 1.10938H207.608H2Z" fill="#57576A" stroke="#20202E" stroke-width="1.78125"/>
<path d="M29.766 24.07L26.42 14.2H28.73L30.76 20.836L32.958 14.172H34.806L37.004 20.836L39.034 14.2H41.288L37.942 24.07H36.066L33.854 17.658L31.642 24.07H29.766ZM42.5243 24V13.78H44.6523V17.56C45.2776 16.7573 46.0103 16.356 46.8503 16.356C47.6623 16.356 48.2876 16.6033 48.7263 17.098C49.1743 17.5833 49.3983 18.2647 49.3983 19.142V24H47.2703V19.814C47.2703 18.7967 46.8409 18.288 45.9823 18.288C45.5623 18.288 45.2356 18.4187 45.0023 18.68C44.7689 18.9413 44.6523 19.3193 44.6523 19.814V24H42.5243ZM54.9289 24.168C53.7809 24.168 52.8196 23.7947 52.0449 23.048C51.2703 22.3013 50.8829 21.382 50.8829 20.29V20.262C50.8829 19.17 51.2703 18.246 52.0449 17.49C52.8289 16.734 53.7996 16.356 54.9569 16.356C56.1049 16.356 57.0663 16.7293 57.8409 17.476C58.6156 18.2227 59.0029 19.142 59.0029 20.234V20.262C59.0029 21.354 58.6109 22.278 57.8269 23.034C57.0523 23.79 56.0863 24.168 54.9289 24.168ZM54.9569 22.334C55.5449 22.334 56.0163 22.138 56.3709 21.746C56.7256 21.354 56.9029 20.8687 56.9029 20.29V20.262C56.9029 19.6927 56.7163 19.2073 56.3429 18.806C55.9789 18.3953 55.5076 18.19 54.9289 18.19C54.3409 18.19 53.8696 18.386 53.5149 18.778C53.1603 19.17 52.9829 19.6553 52.9829 20.234V20.262C52.9829 20.8313 53.1649 21.3213 53.5289 21.732C53.9023 22.1333 54.3783 22.334 54.9569 22.334ZM60.6418 24V13.78H62.7698V24H60.6418ZM68.3244 24.168C67.1857 24.168 66.2477 23.8087 65.5104 23.09C64.7731 22.362 64.4044 21.4287 64.4044 20.29V20.262C64.4044 19.17 64.7544 18.246 65.4544 17.49C66.1544 16.734 67.0411 16.356 68.1144 16.356C69.2997 16.356 70.2051 16.748 70.8304 17.532C71.4557 18.316 71.7684 19.282 71.7684 20.43C71.7684 20.5233 71.7591 20.71 71.7404 20.99H66.5184C66.6211 21.466 66.8311 21.83 67.1484 22.082C67.4657 22.334 67.8671 22.46 68.3524 22.46C68.9964 22.46 69.6031 22.2033 70.1724 21.69L71.3904 22.768C70.6344 23.7013 69.6124 24.168 68.3244 24.168ZM66.4904 19.66H69.6964C69.6311 19.1747 69.4584 18.7873 69.1784 18.498C68.9077 18.2087 68.5531 18.064 68.1144 18.064C67.6757 18.064 67.3164 18.2087 67.0364 18.498C66.7564 18.778 66.5744 19.1653 66.4904 19.66ZM75.9863 24.14C74.8103 24.14 73.737 23.762 72.7663 23.006L73.6763 21.606C74.4977 22.2033 75.2863 22.502 76.0423 22.502C76.6397 22.502 76.9383 22.3153 76.9383 21.942V21.914C76.9383 21.8487 76.9243 21.788 76.8963 21.732C76.8777 21.676 76.8357 21.6293 76.7703 21.592C76.705 21.5453 76.6443 21.5033 76.5883 21.466C76.5323 21.4287 76.4483 21.3913 76.3363 21.354C76.2243 21.3167 76.131 21.284 76.0563 21.256C75.9817 21.228 75.8697 21.1953 75.7203 21.158C75.5803 21.1113 75.4683 21.074 75.3843 21.046C75.0763 20.962 74.8057 20.8687 74.5723 20.766C74.3483 20.6633 74.115 20.528 73.8723 20.36C73.639 20.192 73.457 19.9773 73.3263 19.716C73.205 19.4453 73.1443 19.1373 73.1443 18.792V18.764C73.1443 18.0267 73.4057 17.448 73.9283 17.028C74.451 16.5987 75.1043 16.384 75.8883 16.384C76.8777 16.384 77.811 16.6733 78.6883 17.252L77.8763 18.722C77.083 18.2553 76.4063 18.022 75.8463 18.022C75.5943 18.022 75.3983 18.0733 75.2583 18.176C75.1277 18.2693 75.0623 18.3907 75.0623 18.54V18.568C75.0623 18.7453 75.1883 18.8993 75.4403 19.03C75.7017 19.1607 76.0843 19.3053 76.5883 19.464C76.9057 19.5667 77.1763 19.6693 77.4003 19.772C77.6243 19.8747 77.8577 20.0147 78.1003 20.192C78.343 20.36 78.5297 20.57 78.6603 20.822C78.791 21.074 78.8563 21.3633 78.8563 21.69V21.718C78.8563 22.5207 78.5903 23.1273 78.0583 23.538C77.5357 23.9393 76.845 24.14 75.9863 24.14ZM82.5097 24.14C81.7724 24.14 81.1564 23.9393 80.6617 23.538C80.1764 23.1273 79.9337 22.5627 79.9337 21.844V21.816C79.9337 21.032 80.2044 20.4393 80.7457 20.038C81.2964 19.6273 82.0337 19.422 82.9577 19.422C83.5644 19.422 84.1757 19.5247 84.7917 19.73V19.604C84.7917 18.6893 84.255 18.232 83.1817 18.232C82.5004 18.232 81.8097 18.3673 81.1097 18.638L80.5777 17.014C81.5204 16.6127 82.491 16.412 83.4897 16.412C84.619 16.412 85.4637 16.692 86.0237 17.252C86.565 17.7933 86.8357 18.5913 86.8357 19.646V24H84.7777V23.188C84.2084 23.8227 83.4524 24.14 82.5097 24.14ZM83.1537 22.67C83.6577 22.67 84.059 22.5487 84.3577 22.306C84.6657 22.0633 84.8197 21.746 84.8197 21.354V20.976C84.3997 20.7893 83.947 20.696 83.4617 20.696C83.0044 20.696 82.645 20.7847 82.3837 20.962C82.1224 21.1393 81.9917 21.396 81.9917 21.732V21.76C81.9917 22.04 82.099 22.264 82.3137 22.432C82.5284 22.5907 82.8084 22.67 83.1537 22.67ZM88.7648 24V13.78H90.8928V24H88.7648ZM96.4475 24.168C95.3088 24.168 94.3708 23.8087 93.6335 23.09C92.8961 22.362 92.5275 21.4287 92.5275 20.29V20.262C92.5275 19.17 92.8775 18.246 93.5775 17.49C94.2775 16.734 95.1641 16.356 96.2375 16.356C97.4228 16.356 98.3281 16.748 98.9535 17.532C99.5788 18.316 99.8915 19.282 99.8915 20.43C99.8915 20.5233 99.8821 20.71 99.8635 20.99H94.6415C94.7441 21.466 94.9541 21.83 95.2715 22.082C95.5888 22.334 95.9901 22.46 96.4755 22.46C97.1195 22.46 97.7261 22.2033 98.2955 21.69L99.5135 22.768C98.7575 23.7013 97.7355 24.168 96.4475 24.168ZM94.6135 19.66H97.8195C97.7541 19.1747 97.5815 18.7873 97.3015 18.498C97.0308 18.2087 96.6761 18.064 96.2375 18.064C95.7988 18.064 95.4395 18.2087 95.1595 18.498C94.8795 18.778 94.6975 19.1653 94.6135 19.66ZM105.899 24V14.2H108.223L110.799 18.344L113.375 14.2H115.699V24H113.557V17.602L110.799 21.788H110.743L108.013 17.644V24H105.899ZM119.957 24.14C119.22 24.14 118.604 23.9393 118.109 23.538C117.624 23.1273 117.381 22.5627 117.381 21.844V21.816C117.381 21.032 117.652 20.4393 118.193 20.038C118.744 19.6273 119.481 19.422 120.405 19.422C121.012 19.422 121.623 19.5247 122.239 19.73V19.604C122.239 18.6893 121.702 18.232 120.629 18.232C119.948 18.232 119.257 18.3673 118.557 18.638L118.025 17.014C118.968 16.6127 119.938 16.412 120.937 16.412C122.066 16.412 122.911 16.692 123.471 17.252C124.012 17.7933 124.283 18.5913 124.283 19.646V24H122.225V23.188C121.656 23.8227 120.9 24.14 119.957 24.14ZM120.601 22.67C121.105 22.67 121.506 22.5487 121.805 22.306C122.113 22.0633 122.267 21.746 122.267 21.354V20.976C121.847 20.7893 121.394 20.696 120.909 20.696C120.452 20.696 120.092 20.7847 119.831 20.962C119.57 21.1393 119.439 21.396 119.439 21.732V21.76C119.439 22.04 119.546 22.264 119.761 22.432C119.976 22.5907 120.256 22.67 120.601 22.67ZM126.114 24V16.496H128.242V18.008C128.727 16.86 129.525 16.3093 130.636 16.356V18.582H130.524C129.796 18.582 129.231 18.8013 128.83 19.24C128.438 19.6787 128.242 20.3413 128.242 21.228V24H126.114ZM131.966 24V13.78H134.094V19.226L136.586 16.496H139.134L136.278 19.45L139.232 24H136.768L134.85 20.92L134.094 21.718V24H131.966ZM143.451 24.168C142.313 24.168 141.375 23.8087 140.637 23.09C139.9 22.362 139.531 21.4287 139.531 20.29V20.262C139.531 19.17 139.881 18.246 140.581 17.49C141.281 16.734 142.168 16.356 143.241 16.356C144.427 16.356 145.332 16.748 145.957 17.532C146.583 18.316 146.895 19.282 146.895 20.43C146.895 20.5233 146.886 20.71 146.867 20.99H141.645C141.748 21.466 141.958 21.83 142.275 22.082C142.593 22.334 142.994 22.46 143.479 22.46C144.123 22.46 144.73 22.2033 145.299 21.69L146.517 22.768C145.761 23.7013 144.739 24.168 143.451 24.168ZM141.617 19.66H144.823C144.758 19.1747 144.585 18.7873 144.305 18.498C144.035 18.2087 143.68 18.064 143.241 18.064C142.803 18.064 142.443 18.2087 142.163 18.498C141.883 18.778 141.701 19.1653 141.617 19.66ZM151.015 24.126C150.315 24.126 149.774 23.958 149.391 23.622C149.018 23.2767 148.831 22.6933 148.831 21.872V18.316H147.935V16.496H148.831V14.578H150.959V16.496H152.723V18.316H150.959V21.522C150.959 22.0073 151.188 22.25 151.645 22.25C152.028 22.25 152.378 22.1613 152.695 21.984V23.692C152.21 23.9813 151.65 24.126 151.015 24.126ZM154.292 26.24V16.496H156.42V17.574C157.008 16.762 157.787 16.356 158.758 16.356C159.691 16.356 160.494 16.706 161.166 17.406C161.838 18.0967 162.174 19.0393 162.174 20.234V20.262C162.174 21.4567 161.838 22.404 161.166 23.104C160.503 23.7947 159.701 24.14 158.758 24.14C157.825 24.14 157.045 23.7667 156.42 23.02V26.24H154.292ZM156.91 21.76C157.265 22.1427 157.699 22.334 158.212 22.334C158.725 22.334 159.159 22.1427 159.514 21.76C159.869 21.3773 160.046 20.878 160.046 20.262V20.234C160.046 19.6273 159.869 19.1327 159.514 18.75C159.159 18.358 158.725 18.162 158.212 18.162C157.699 18.162 157.265 18.358 156.91 18.75C156.565 19.1327 156.392 19.6273 156.392 20.234V20.262C156.392 20.8687 156.565 21.368 156.91 21.76ZM163.837 24V13.78H165.965V24H163.837ZM170.092 24.14C169.354 24.14 168.738 23.9393 168.244 23.538C167.758 23.1273 167.516 22.5627 167.516 21.844V21.816C167.516 21.032 167.786 20.4393 168.328 20.038C168.878 19.6273 169.616 19.422 170.54 19.422C171.146 19.422 171.758 19.5247 172.374 19.73V19.604C172.374 18.6893 171.837 18.232 170.764 18.232C170.082 18.232 169.392 18.3673 168.692 18.638L168.16 17.014C169.102 16.6127 170.073 16.412 171.072 16.412C172.201 16.412 173.046 16.692 173.606 17.252C174.147 17.7933 174.418 18.5913 174.418 19.646V24H172.36V23.188C171.79 23.8227 171.034 24.14 170.092 24.14ZM170.736 22.67C171.24 22.67 171.641 22.5487 171.94 22.306C172.248 22.0633 172.402 21.746 172.402 21.354V20.976C171.982 20.7893 171.529 20.696 171.044 20.696C170.586 20.696 170.227 20.7847 169.966 20.962C169.704 21.1393 169.574 21.396 169.574 21.732V21.76C169.574 22.04 169.681 22.264 169.896 22.432C170.11 22.5907 170.39 22.67 170.736 22.67ZM179.791 24.168C178.68 24.168 177.752 23.79 177.005 23.034C176.258 22.278 175.885 21.3633 175.885 20.29V20.262C175.885 19.1793 176.258 18.26 177.005 17.504C177.752 16.7387 178.69 16.356 179.819 16.356C181.051 16.356 182.05 16.776 182.815 17.616L181.513 19.016C181.242 18.736 180.976 18.5307 180.715 18.4C180.463 18.26 180.16 18.19 179.805 18.19C179.282 18.19 178.848 18.3907 178.503 18.792C178.158 19.184 177.985 19.6647 177.985 20.234V20.262C177.985 20.8593 178.158 21.354 178.503 21.746C178.858 22.138 179.32 22.334 179.889 22.334C180.477 22.334 181.051 22.068 181.611 21.536L182.857 22.796C182.446 23.244 182.008 23.5847 181.541 23.818C181.074 24.0513 180.491 24.168 179.791 24.168ZM187.598 24.168C186.459 24.168 185.521 23.8087 184.784 23.09C184.047 22.362 183.678 21.4287 183.678 20.29V20.262C183.678 19.17 184.028 18.246 184.728 17.49C185.428 16.734 186.315 16.356 187.388 16.356C188.573 16.356 189.479 16.748 190.104 17.532C190.729 18.316 191.042 19.282 191.042 20.43C191.042 20.5233 191.033 20.71 191.014 20.99H185.792C185.895 21.466 186.105 21.83 186.422 22.082C186.739 22.334 187.141 22.46 187.626 22.46C188.27 22.46 188.877 22.2033 189.446 21.69L190.664 22.768C189.908 23.7013 188.886 24.168 187.598 24.168ZM185.764 19.66H188.97C188.905 19.1747 188.732 18.7873 188.452 18.498C188.181 18.2087 187.827 18.064 187.388 18.064C186.949 18.064 186.59 18.2087 186.31 18.498C186.03 18.778 185.848 19.1653 185.764 19.66Z" fill="#DEE1FF"/>
</svg>
