<svg width="246" height="38" viewBox="0 0 246 38" fill="none" xmlns="http://www.w3.org/2000/svg">
<path d="M231 1.10938H229.875L230.133 2.20399L238.133 36.204L238.295 36.8906H239H243H244.125L243.867 35.796L235.867 1.79601L235.705 1.10938H235H231Z" fill="#57576A" stroke="#20202E" stroke-width="1.78125"/>
<path d="M222 1.10938H220.875L221.133 2.20399L229.133 36.204L229.295 36.8906H230H234H235.125L234.867 35.796L226.867 1.79601L226.705 1.10938H226H222Z" fill="#57576A" stroke="#20202E" stroke-width="1.78125"/>
<path d="M213 1.10938H211.875L212.133 2.20399L220.133 36.204L220.295 36.8906H221H225H226.125L225.867 35.796L217.867 1.79601L217.705 1.10938H217H213Z" fill="#57576A" stroke="#20202E" stroke-width="1.78125"/>
<path d="M2 1.10938H1.10938V2V36V36.8906H2H216H217.137L216.865 35.7866L208.473 1.78657L208.305 1.10938H207.608H2Z" fill="#57576A" stroke="#20202E" stroke-width="1.78125"/>
<path d="M27.176 24V14.2H34.638V16.16H29.332V18.246H34.008V20.206H29.332V24H27.176ZM38.6315 24.14C37.8195 24.14 37.1895 23.8973 36.7415 23.412C36.3028 22.9173 36.0835 22.2313 36.0835 21.354V16.496H38.2115V20.682C38.2115 21.6993 38.6408 22.208 39.4995 22.208C39.9195 22.208 40.2462 22.0773 40.4795 21.816C40.7128 21.5547 40.8295 21.1767 40.8295 20.682V16.496H42.9575V24H40.8295V22.936C40.2042 23.7387 39.4715 24.14 38.6315 24.14ZM47.3962 24.126C46.6962 24.126 46.1548 23.958 45.7722 23.622C45.3988 23.2767 45.2122 22.6933 45.2122 21.872V18.316H44.3162V16.496H45.2122V14.578H47.3402V16.496H49.1042V18.316H47.3402V21.522C47.3402 22.0073 47.5688 22.25 48.0262 22.25C48.4088 22.25 48.7588 22.1613 49.0762 21.984V23.692C48.5908 23.9813 48.0308 24.126 47.3962 24.126ZM53.1647 24.14C52.3527 24.14 51.7227 23.8973 51.2747 23.412C50.836 22.9173 50.6167 22.2313 50.6167 21.354V16.496H52.7447V20.682C52.7447 21.6993 53.174 22.208 54.0327 22.208C54.4527 22.208 54.7794 22.0773 55.0127 21.816C55.246 21.5547 55.3627 21.1767 55.3627 20.682V16.496H57.4907V24H55.3627V22.936C54.7374 23.7387 54.0047 24.14 53.1647 24.14ZM59.3954 24V16.496H61.5234V18.008C62.0087 16.86 62.8067 16.3093 63.9174 16.356V18.582H63.8054C63.0774 18.582 62.5127 18.8013 62.1114 19.24C61.7194 19.6787 61.5234 20.3413 61.5234 21.228V24H59.3954ZM68.5978 24.168C67.4592 24.168 66.5212 23.8087 65.7838 23.09C65.0465 22.362 64.6778 21.4287 64.6778 20.29V20.262C64.6778 19.17 65.0278 18.246 65.7278 17.49C66.4278 16.734 67.3145 16.356 68.3878 16.356C69.5732 16.356 70.4785 16.748 71.1038 17.532C71.7292 18.316 72.0418 19.282 72.0418 20.43C72.0418 20.5233 72.0325 20.71 72.0138 20.99H66.7918C66.8945 21.466 67.1045 21.83 67.4218 22.082C67.7392 22.334 68.1405 22.46 68.6258 22.46C69.2698 22.46 69.8765 22.2033 70.4458 21.69L71.6638 22.768C70.9078 23.7013 69.8858 24.168 68.5978 24.168ZM66.7638 19.66H69.9698C69.9045 19.1747 69.7318 18.7873 69.4518 18.498C69.1812 18.2087 68.8265 18.064 68.3878 18.064C67.9492 18.064 67.5898 18.2087 67.3098 18.498C67.0298 18.778 66.8478 19.1653 66.7638 19.66ZM78.049 24V14.2H82.529C83.7704 14.2 84.7224 14.5313 85.385 15.194C85.945 15.754 86.225 16.5007 86.225 17.434V17.462C86.225 18.9647 85.525 19.9773 84.125 20.5L86.519 24H83.999L81.899 20.864H80.205V24H78.049ZM80.205 18.96H82.389C82.9117 18.96 83.3177 18.8387 83.607 18.596C83.8964 18.344 84.041 18.0033 84.041 17.574V17.546C84.041 17.0887 83.8917 16.7433 83.593 16.51C83.3037 16.2673 82.8884 16.146 82.347 16.146H80.205V18.96ZM91.3615 24.168C90.2228 24.168 89.2848 23.8087 88.5475 23.09C87.8102 22.362 87.4415 21.4287 87.4415 20.29V20.262C87.4415 19.17 87.7915 18.246 88.4915 17.49C89.1915 16.734 90.0782 16.356 91.1515 16.356C92.3368 16.356 93.2422 16.748 93.8675 17.532C94.4928 18.316 94.8055 19.282 94.8055 20.43C94.8055 20.5233 94.7962 20.71 94.7775 20.99H89.5555C89.6582 21.466 89.8682 21.83 90.1855 22.082C90.5028 22.334 90.9042 22.46 91.3895 22.46C92.0335 22.46 92.6402 22.2033 93.2095 21.69L94.4275 22.768C93.6715 23.7013 92.6495 24.168 91.3615 24.168ZM89.5275 19.66H92.7335C92.6682 19.1747 92.4955 18.7873 92.2155 18.498C91.9448 18.2087 91.5902 18.064 91.1515 18.064C90.7128 18.064 90.3535 18.2087 90.0735 18.498C89.7935 18.778 89.6115 19.1653 89.5275 19.66ZM96.4895 24V13.78H98.6175V24H96.4895ZM104.172 24.168C103.033 24.168 102.095 23.8087 101.358 23.09C100.621 22.362 100.252 21.4287 100.252 20.29V20.262C100.252 19.17 100.602 18.246 101.302 17.49C102.002 16.734 102.889 16.356 103.962 16.356C105.147 16.356 106.053 16.748 106.678 17.532C107.303 18.316 107.616 19.282 107.616 20.43C107.616 20.5233 107.607 20.71 107.588 20.99H102.366C102.469 21.466 102.679 21.83 102.996 22.082C103.313 22.334 103.715 22.46 104.2 22.46C104.844 22.46 105.451 22.2033 106.02 21.69L107.238 22.768C106.482 23.7013 105.46 24.168 104.172 24.168ZM102.338 19.66H105.544C105.479 19.1747 105.306 18.7873 105.026 18.498C104.755 18.2087 104.401 18.064 103.962 18.064C103.523 18.064 103.164 18.2087 102.884 18.498C102.604 18.778 102.422 19.1653 102.338 19.66ZM111.33 24.14C110.593 24.14 109.977 23.9393 109.482 23.538C108.997 23.1273 108.754 22.5627 108.754 21.844V21.816C108.754 21.032 109.025 20.4393 109.566 20.038C110.117 19.6273 110.854 19.422 111.778 19.422C112.385 19.422 112.996 19.5247 113.612 19.73V19.604C113.612 18.6893 113.075 18.232 112.002 18.232C111.321 18.232 110.63 18.3673 109.93 18.638L109.398 17.014C110.341 16.6127 111.311 16.412 112.31 16.412C113.439 16.412 114.284 16.692 114.844 17.252C115.385 17.7933 115.656 18.5913 115.656 19.646V24H113.598V23.188C113.029 23.8227 112.273 24.14 111.33 24.14ZM111.974 22.67C112.478 22.67 112.879 22.5487 113.178 22.306C113.486 22.0633 113.64 21.746 113.64 21.354V20.976C113.22 20.7893 112.767 20.696 112.282 20.696C111.825 20.696 111.465 20.7847 111.204 20.962C110.943 21.1393 110.812 21.396 110.812 21.732V21.76C110.812 22.04 110.919 22.264 111.134 22.432C111.349 22.5907 111.629 22.67 111.974 22.67ZM120.119 24.14C118.943 24.14 117.87 23.762 116.899 23.006L117.809 21.606C118.63 22.2033 119.419 22.502 120.175 22.502C120.772 22.502 121.071 22.3153 121.071 21.942V21.914C121.071 21.8487 121.057 21.788 121.029 21.732C121.01 21.676 120.968 21.6293 120.903 21.592C120.838 21.5453 120.777 21.5033 120.721 21.466C120.665 21.4287 120.581 21.3913 120.469 21.354C120.357 21.3167 120.264 21.284 120.189 21.256C120.114 21.228 120.002 21.1953 119.853 21.158C119.713 21.1113 119.601 21.074 119.517 21.046C119.209 20.962 118.938 20.8687 118.705 20.766C118.481 20.6633 118.248 20.528 118.005 20.36C117.772 20.192 117.59 19.9773 117.459 19.716C117.338 19.4453 117.277 19.1373 117.277 18.792V18.764C117.277 18.0267 117.538 17.448 118.061 17.028C118.584 16.5987 119.237 16.384 120.021 16.384C121.01 16.384 121.944 16.6733 122.821 17.252L122.009 18.722C121.216 18.2553 120.539 18.022 119.979 18.022C119.727 18.022 119.531 18.0733 119.391 18.176C119.26 18.2693 119.195 18.3907 119.195 18.54V18.568C119.195 18.7453 119.321 18.8993 119.573 19.03C119.834 19.1607 120.217 19.3053 120.721 19.464C121.038 19.5667 121.309 19.6693 121.533 19.772C121.757 19.8747 121.99 20.0147 122.233 20.192C122.476 20.36 122.662 20.57 122.793 20.822C122.924 21.074 122.989 21.3633 122.989 21.69V21.718C122.989 22.5207 122.723 23.1273 122.191 23.538C121.668 23.9393 120.978 24.14 120.119 24.14ZM128.071 24.168C126.932 24.168 125.994 23.8087 125.257 23.09C124.519 22.362 124.151 21.4287 124.151 20.29V20.262C124.151 19.17 124.501 18.246 125.201 17.49C125.901 16.734 126.787 16.356 127.861 16.356C129.046 16.356 129.951 16.748 130.577 17.532C131.202 18.316 131.515 19.282 131.515 20.43C131.515 20.5233 131.505 20.71 131.487 20.99H126.265C126.367 21.466 126.577 21.83 126.895 22.082C127.212 22.334 127.613 22.46 128.099 22.46C128.743 22.46 129.349 22.2033 129.919 21.69L131.137 22.768C130.381 23.7013 129.359 24.168 128.071 24.168ZM126.237 19.66H129.443C129.377 19.1747 129.205 18.7873 128.925 18.498C128.654 18.2087 128.299 18.064 127.861 18.064C127.422 18.064 127.063 18.2087 126.783 18.498C126.503 18.778 126.321 19.1653 126.237 19.66ZM135.732 24.14C134.556 24.14 133.483 23.762 132.512 23.006L133.422 21.606C134.244 22.2033 135.032 22.502 135.788 22.502C136.386 22.502 136.684 22.3153 136.684 21.942V21.914C136.684 21.8487 136.67 21.788 136.642 21.732C136.624 21.676 136.582 21.6293 136.516 21.592C136.451 21.5453 136.39 21.5033 136.334 21.466C136.278 21.4287 136.194 21.3913 136.082 21.354C135.97 21.3167 135.877 21.284 135.802 21.256C135.728 21.228 135.616 21.1953 135.466 21.158C135.326 21.1113 135.214 21.074 135.13 21.046C134.822 20.962 134.552 20.8687 134.318 20.766C134.094 20.6633 133.861 20.528 133.618 20.36C133.385 20.192 133.203 19.9773 133.072 19.716C132.951 19.4453 132.89 19.1373 132.89 18.792V18.764C132.89 18.0267 133.152 17.448 133.674 17.028C134.197 16.5987 134.85 16.384 135.634 16.384C136.624 16.384 137.557 16.6733 138.434 17.252L137.622 18.722C136.829 18.2553 136.152 18.022 135.592 18.022C135.34 18.022 135.144 18.0733 135.004 18.176C134.874 18.2693 134.808 18.3907 134.808 18.54V18.568C134.808 18.7453 134.934 18.8993 135.186 19.03C135.448 19.1607 135.83 19.3053 136.334 19.464C136.652 19.5667 136.922 19.6693 137.146 19.772C137.37 19.8747 137.604 20.0147 137.846 20.192C138.089 20.36 138.276 20.57 138.406 20.822C138.537 21.074 138.602 21.3633 138.602 21.69V21.718C138.602 22.5207 138.336 23.1273 137.804 23.538C137.282 23.9393 136.591 24.14 135.732 24.14Z" fill="#DEE1FF"/>
</svg>
