<svg width="56" height="56" viewBox="0 0 56 56" fill="none" xmlns="http://www.w3.org/2000/svg">
<g clip-path="url(#clip0_50_272)">
<rect width="57" height="57" fill="url(#paint0_linear_50_272)"/>
<g clip-path="url(#clip1_50_272)">
<path d="M30.0515 39.0463C30.0739 39.0422 30.0959 39.0363 30.1176 39.0288C30.1214 39.0276 30.125 39.0263 30.1286 39.0249C30.151 39.0168 30.173 39.007 30.1942 38.9954C30.1949 38.995 30.1956 38.9948 30.1964 38.9944C30.1997 38.9926 30.2027 38.9903 30.206 38.9883C30.2152 38.983 30.2242 38.9774 30.2331 38.9714C30.2392 38.9673 30.245 38.9628 30.2508 38.9584C30.2571 38.9536 30.2636 38.9488 30.2699 38.9436C30.2774 38.9374 30.2845 38.9306 30.2918 38.9238C30.295 38.9208 30.2984 38.9181 30.3016 38.915C30.304 38.9125 30.3061 38.9103 30.3084 38.9079C30.3089 38.9074 30.3094 38.9069 30.3098 38.9066C37.1822 32.0304 36.3067 28.2331 36.266 28.0747C36.2008 27.8208 35.9417 27.6674 35.6875 27.7327C35.4333 27.7979 35.2802 28.0569 35.3455 28.3111C35.3473 28.3187 28.1407 34.3155 28.1407 34.3155C28.0135 34.0861 27.724 34.0034 27.4945 34.1309C27.265 34.2584 27.1824 34.5477 27.3099 34.777L29.5444 38.7996C29.5446 38.8 29.5449 38.8005 29.5451 38.8009L29.55 38.8098C29.551 38.8116 29.5525 38.8133 29.5536 38.8151C29.562 38.8299 29.5713 38.8441 29.5815 38.8581C29.5847 38.8624 29.5877 38.8669 29.5909 38.8709C29.6017 38.8848 29.6132 38.8982 29.6257 38.9109C29.6271 38.9123 29.6282 38.9141 29.6296 38.9154C29.6307 38.9164 29.632 38.9171 29.633 38.9183C29.6484 38.9333 29.6647 38.9468 29.6815 38.9593C29.6857 38.9624 29.6897 38.9656 29.694 38.9686C29.7124 38.9813 29.7314 38.9928 29.7509 39.0028C29.7534 39.0041 29.7559 39.005 29.7584 39.0063C29.7782 39.0159 29.7986 39.0241 29.8193 39.0308C29.8212 39.0314 29.823 39.0321 29.8249 39.0328C29.8465 39.0394 29.8683 39.0443 29.8905 39.0477C29.8947 39.0484 29.8991 39.0491 29.9034 39.0495C29.9253 39.0525 29.9472 39.0541 29.9692 39.0539C29.9726 39.0539 29.9759 39.0536 29.9792 39.0534C29.9997 39.0528 30.0203 39.0509 30.0407 39.0476C30.0445 39.0473 30.048 39.0469 30.0515 39.0463Z" fill="#EE5253"/>
<path d="M21.8702 28.5045C21.9978 28.2751 21.915 27.9855 21.6856 27.8584C21.6856 27.8584 27.6875 20.6528 27.696 20.6548L27.6899 20.6532L27.9263 19.7327C27.7678 19.6919 23.9709 18.8169 17.0947 25.6893C17.0943 25.6898 17.0938 25.6903 17.0934 25.6906C17.091 25.693 17.0887 25.6951 17.0864 25.6975C17.0831 25.7008 17.0806 25.7041 17.0775 25.7074C17.0707 25.7145 17.064 25.7216 17.0576 25.7293C17.0525 25.7355 17.0477 25.742 17.0429 25.7484C17.0386 25.7542 17.034 25.7601 17.0299 25.7661C17.0239 25.7749 17.0184 25.7839 17.013 25.7931C17.0111 25.7965 17.0088 25.7995 17.007 25.8028C17.0065 25.8036 17.0063 25.8043 17.0059 25.805C16.9942 25.8262 16.9846 25.848 16.9765 25.8702C16.9751 25.8741 16.9737 25.8779 16.9725 25.8818C16.9651 25.9035 16.9591 25.9252 16.9551 25.9475C16.9544 25.9512 16.9541 25.9549 16.9535 25.9587C16.9503 25.9787 16.9484 25.9991 16.9479 26.0193C16.9477 26.0228 16.9473 26.0264 16.9473 26.0298C16.9471 26.0519 16.9488 26.0736 16.9517 26.0954C16.9523 26.0998 16.9529 26.1042 16.9535 26.1086C16.9571 26.1308 16.9619 26.1526 16.9685 26.1741C16.9691 26.176 16.9698 26.178 16.9704 26.1798C16.9771 26.2006 16.9853 26.2207 16.9949 26.2405C16.9961 26.2431 16.9972 26.2456 16.9985 26.2481C17.0084 26.2678 17.02 26.2865 17.0327 26.305C17.0358 26.3093 17.0388 26.3134 17.042 26.3176C17.0546 26.3343 17.0681 26.3506 17.0831 26.366C17.0841 26.3671 17.0848 26.3682 17.086 26.3694C17.0873 26.3707 17.089 26.3719 17.0904 26.3733C17.1032 26.3858 17.1166 26.3973 17.1303 26.4081C17.1345 26.4113 17.1389 26.4144 17.1433 26.4175C17.1572 26.4277 17.1715 26.437 17.1861 26.4454C17.188 26.4465 17.1896 26.4479 17.1915 26.4489L17.2004 26.4538C17.2008 26.4541 17.2012 26.4542 17.2016 26.4546L21.224 28.689C21.4534 28.8166 21.7428 28.734 21.8702 28.5045Z" fill="#FF6B6B"/>
<path d="M19.9927 31.0698C19.8605 30.9376 19.8181 30.7402 19.8844 30.5654C21.1364 27.2612 25.926 21.3365 28.7581 18.5044C33.2837 13.9789 38.1157 11.8538 43.5303 12.0078C43.7822 12.015 43.9847 12.2175 43.9918 12.4693C44.1459 17.8838 42.0209 22.7158 37.4952 27.2415C34.6631 30.0736 28.7386 34.8633 25.4345 36.1154C25.2596 36.1815 25.0622 36.1391 24.93 36.0069L19.9927 31.0698Z" fill="#E4E8EB"/>
<path d="M43.9916 12.4692C43.9844 12.2174 43.7819 12.0149 43.5301 12.0077C43.2352 11.9993 42.9424 11.9989 42.6509 12.0041C42.5615 17.0644 40.4298 21.6179 36.1506 25.8972C33.3186 28.7292 27.394 33.5189 24.0899 34.7709C23.9151 34.8372 23.7176 34.7947 23.5854 34.6625L19.9922 31.0695C19.9923 31.0695 19.9924 31.0696 19.9925 31.0697L24.9298 36.0068C25.0619 36.139 25.2593 36.1814 25.4342 36.1152C28.7383 34.8632 34.6628 30.0735 37.4949 27.2414C42.0206 22.7158 44.1457 17.8838 43.9916 12.4692Z" fill="#CAD0D7"/>
<path d="M20.9442 28.4365C20.4884 29.2146 20.1224 29.9374 19.8844 30.5654C19.8181 30.7402 19.8605 30.9376 19.9927 31.0698L24.93 36.0069C25.0622 36.139 25.2595 36.1815 25.4344 36.1153C26.0624 35.8773 26.7852 35.5114 27.5632 35.0554L20.9442 28.4365Z" fill="#576574"/>
<path d="M12.3421 43.6581C11.9094 43.2255 11.8874 42.4788 12.2747 41.3755C12.5516 40.5864 13.0356 39.6079 13.7128 38.4676C14.879 36.504 16.3979 34.4493 17.0849 33.7625C17.7729 33.0743 18.688 32.6953 19.6611 32.6953C20.6342 32.6953 21.5493 33.0743 22.2374 33.7625C23.6579 35.183 23.6579 37.4944 22.2375 38.915C21.5503 39.6021 19.4957 41.121 17.5323 42.2872C16.3918 42.9645 15.4136 43.4483 14.6246 43.7254C13.5212 44.1126 12.7746 44.0906 12.3421 43.6581Z" fill="#FF6B6B"/>
<path d="M22.2366 33.7624C22.0059 33.5318 21.7494 33.3367 21.4741 33.1782C22.2743 34.5704 22.0808 36.3821 20.8924 37.5707C20.2053 38.2577 18.1506 39.7766 16.1873 40.9428C15.0468 41.6201 14.0684 42.1039 13.2794 42.3811C12.7816 42.5558 12.3571 42.6464 12.0006 42.6544C11.9909 43.088 12.1038 43.4206 12.3412 43.6581C12.7737 44.0906 13.5203 44.1126 14.6237 43.7254C15.4126 43.4483 16.391 42.9644 17.5314 42.2872C19.4949 41.1211 21.5495 39.6021 22.2366 38.915C23.6571 37.4944 23.6571 35.1829 22.2366 33.7624Z" fill="#EE5253"/>
<path d="M23.135 32.8665C22.9493 32.6808 22.6485 32.6808 22.4629 32.8665L22.127 33.2023L22.799 33.8743L23.135 33.5384C23.3205 33.3528 23.3205 33.052 23.135 32.8665Z" fill="#222F3E"/>
<path d="M21.3419 31.0741C21.1564 30.8885 20.8555 30.8885 20.6699 31.0741L20.334 31.41L21.006 32.0821L21.3419 31.7461C21.5275 31.5606 21.5275 31.2598 21.3419 31.0741Z" fill="#222F3E"/>
<path d="M28.5833 27.4164C28.1644 26.9976 27.9336 26.4406 27.9336 25.8482C27.9336 25.2558 28.1643 24.6989 28.5833 24.28C29.002 23.8612 29.559 23.6305 30.1513 23.6304C30.7438 23.6304 31.3007 23.8611 31.7195 24.2799C32.1383 24.6987 32.3692 25.2558 32.3692 25.8481C32.3692 26.4406 32.1385 26.9976 31.7195 27.4164C30.8548 28.281 29.4481 28.281 28.5833 27.4164Z" fill="#54A0FF"/>
<path d="M33.9611 22.0391C33.0963 21.1745 33.0963 19.7675 33.9611 18.9029C34.8258 18.0382 36.2328 18.0382 37.0973 18.9029C37.5162 19.3217 37.747 19.8787 37.7471 20.4711C37.7471 21.0634 37.5163 21.6205 37.0974 22.0394C36.2328 22.9039 34.8258 22.9039 33.9611 22.0391Z" fill="#54A0FF"/>
<path d="M37.7459 20.4711C37.7458 19.8786 37.5151 19.3217 37.0961 18.9028C36.8563 18.663 36.5745 18.4898 36.2742 18.3831C36.3578 18.6187 36.4015 18.8694 36.4016 19.1268C36.4016 19.7191 36.1708 20.2761 35.752 20.6949C35.1277 21.3192 34.2209 21.4926 33.4395 21.2154C33.5461 21.5164 33.7195 21.7987 33.96 22.0391C34.8247 22.9039 36.2318 22.9039 37.0963 22.0394C37.5151 21.6204 37.7459 21.0634 37.7459 20.4711Z" fill="#2E86DE"/>
<path d="M32.3689 25.8481C32.3689 25.2558 32.1381 24.6989 31.7192 24.28C31.4794 24.0401 31.1976 23.8669 30.8973 23.7603C30.9809 23.9958 31.0246 24.2465 31.0247 24.5039C31.0247 25.0963 30.794 25.6533 30.3751 26.0721C29.7508 26.6964 28.844 26.8696 28.0625 26.5926C28.1692 26.8934 28.3426 27.1758 28.583 27.4163C29.4478 28.281 30.8548 28.281 31.7193 27.4164C32.1383 26.9974 32.3689 26.4405 32.3689 25.8481Z" fill="#2E86DE"/>
<path d="M15.1708 40.8288C14.8003 40.4583 15.0373 39.8691 15.3178 39.3413C15.5488 38.9071 15.9055 38.352 16.378 37.6913C17.1843 36.5638 18.1461 35.389 18.4286 35.1066C19.108 34.4271 20.2135 34.4271 20.8929 35.1066C21.5723 35.7859 21.5723 36.8914 20.8929 37.5709C20.6104 37.8534 19.4355 38.8154 18.3083 39.6215C17.6476 40.094 17.0925 40.4507 16.6582 40.6816C16.1306 40.9623 15.5413 41.1991 15.1708 40.8288Z" fill="#FECA57"/>
<path d="M43.5309 12.0078C41.6234 11.9536 39.7886 12.1835 38.0137 12.7002L43.3 17.9867C43.8168 16.2117 44.0467 14.3767 43.9924 12.4693C43.9853 12.2175 43.7828 12.0149 43.5309 12.0078Z" fill="#FF6B6B"/>
<path d="M25.6184 36.0426C25.6534 36.0284 25.6886 36.0138 25.7242 35.9989C25.7394 35.9924 25.7547 35.986 25.7701 35.9796C25.8116 35.9618 25.8534 35.9436 25.8956 35.925C25.9036 35.9214 25.9113 35.9183 25.9192 35.9146C25.9679 35.8929 26.0171 35.8706 26.0667 35.8476C26.084 35.8397 26.1015 35.8315 26.1188 35.8233C26.1525 35.8076 26.1865 35.7916 26.2206 35.7753C26.2406 35.7656 26.2607 35.7561 26.2807 35.7463C26.3154 35.7296 26.3503 35.7124 26.3853 35.6951C26.4032 35.6861 26.421 35.6776 26.4391 35.6686C26.4874 35.6443 26.5361 35.6197 26.5852 35.5946C26.6096 35.5821 26.6343 35.5691 26.6589 35.5563C26.6867 35.5418 26.7147 35.5274 26.7428 35.5125C26.7703 35.4981 26.7979 35.4834 26.8256 35.4686C26.8511 35.4549 26.8768 35.4412 26.9025 35.4274C26.9314 35.4118 26.9604 35.3962 26.9896 35.3803C27.0008 35.3742 27.0122 35.3678 27.0235 35.3616C27.0929 35.3234 27.1628 35.2844 27.2334 35.2448C27.2527 35.234 27.2718 35.2231 27.2912 35.2122C27.3267 35.1921 27.3621 35.1717 27.3978 35.1512C27.4153 35.1412 27.4328 35.1311 27.4502 35.1209C27.4876 35.0992 27.525 35.0776 27.5627 35.0556L26.2184 33.7113C25.4403 34.1671 24.7176 34.5332 24.0896 34.7711C23.9147 34.8374 23.7173 34.7949 23.5851 34.6628L19.9922 31.0699L24.9294 36.007C25.0616 36.1392 25.259 36.1816 25.4339 36.1154C25.4805 36.0978 25.5279 36.0791 25.5756 36.06C25.5899 36.0542 25.6041 36.0483 25.6184 36.0426Z" fill="#222F3E"/>
<path d="M42.6511 12.0042C42.623 13.598 42.3916 15.1417 41.9551 16.6422L43.2994 17.9866C43.3292 17.8844 43.3577 17.7819 43.3856 17.6793C43.3915 17.6572 43.3973 17.635 43.4033 17.613C43.4838 17.312 43.5558 17.0093 43.6199 16.7049C43.6278 16.6679 43.6354 16.6309 43.643 16.5939C43.6617 16.5022 43.6799 16.4104 43.6971 16.3182C43.7038 16.2827 43.7098 16.2468 43.7163 16.2113C43.7441 16.057 43.7698 15.9025 43.7935 15.7475C43.8026 15.688 43.8118 15.6287 43.8202 15.5692C43.8309 15.4934 43.8413 15.4177 43.851 15.3417C43.8606 15.2673 43.8694 15.1928 43.8781 15.1183C43.8873 15.0404 43.8961 14.9625 43.9042 14.8844C43.916 14.7698 43.9267 14.655 43.9363 14.5399C43.9411 14.482 43.9453 14.424 43.9495 14.3661C43.9564 14.2704 43.9628 14.1747 43.9683 14.0789C43.9712 14.0289 43.9743 13.979 43.9768 13.929C43.9837 13.7886 43.9892 13.6479 43.9929 13.5067C43.9939 13.4707 43.9942 13.4344 43.9949 13.3983C43.9973 13.2816 43.9986 13.1647 43.9988 13.0476C43.9988 13.0045 43.9989 12.9613 43.9987 12.9182C43.9979 12.769 43.996 12.6194 43.9918 12.4692C43.9846 12.2174 43.7821 12.0149 43.5303 12.0077C43.2353 11.9994 42.9425 11.999 42.6511 12.0042Z" fill="#EE5253"/>
</g>
<path d="M0 -0.890625H-0.890625V0V21.375V23.5252L0.629767 22.0048L22.0048 0.629767L23.5252 -0.890625H21.375H0Z" fill="#57576A" stroke="#20202E" stroke-width="1.78125"/>
<path d="M58.7812 59.6719L59.6719 59.6719L59.6719 58.7813L59.6719 37.4063L59.6719 35.2561L58.1515 36.7765L36.7765 58.1515L35.2561 59.6719L37.4062 59.6719L58.7812 59.6719Z" fill="#57576A" stroke="#20202E" stroke-width="1.78125"/>
</g>
<defs>
<linearGradient id="paint0_linear_50_272" x1="43.4951" y1="17.3036" x2="13.7325" y2="18.7197" gradientUnits="userSpaceOnUse">
<stop stop-color="#FF616A"/>
<stop offset="1" stop-color="#FF8291"/>
</linearGradient>
<clipPath id="clip0_50_272">
<rect width="56" height="56" fill="white"/>
</clipPath>
<clipPath id="clip1_50_272">
<rect width="32" height="32" fill="white" transform="translate(12 12)"/>
</clipPath>
</defs>
</svg>
