<svg width="166" height="40" viewBox="0 0 166 40" fill="none" xmlns="http://www.w3.org/2000/svg">
<path d="M166 8.40131H165.215V6.44208L164.431 7.73518H164.038L163.646 6.44208V8.40131H162.862V5.07062H163.646L164.431 6.87311L165.215 5.07062H166V8.40131ZM162.47 5.65839H161.685V8.40131H160.901V5.65839H160.116V5.07062H162.47V5.65839ZM158.155 18.0015H155.802V10.4781L153.056 15.3762H151.487L149.134 10.4781V18.0015H146.388V5.07062H149.134L152.272 12.0455L155.802 5.07062H158.155V18.0015ZM142.858 18.0015H140.112L139.328 15.7288H135.013L134.229 18.0015H131.483L136.19 5.07062H138.151L142.858 18.0015ZM138.936 13.5737L137.367 8.87153L135.798 13.5737H138.936ZM127.561 18.0015H118.932V5.07062H127.561V7.30415H121.678V10.3605H126.777V12.5941H121.678V15.768H127.561V18.0015ZM115.01 7.30415H111.872V18.0015H109.126V7.30415H105.596V5.07062H115.01V7.30415ZM102.458 14.2006C102.458 16.8652 100.105 18.0799 97.7516 18.1191C95.3982 18.1191 93.8293 17.5705 93.0448 16.395L94.6137 14.7884C95.3982 15.4937 96.1827 15.8856 97.7516 15.8856C99.3205 15.8856 100.105 15.337 100.105 14.279C100.105 13.2994 99.3205 12.8684 98.536 12.7116L96.9671 12.5157C94.6137 12.2022 93.437 10.9875 93.437 8.87153C93.437 7.69599 93.8293 6.75556 94.6137 6.01105C95.3982 5.30573 96.5749 4.95307 97.7516 4.95307C99.7127 4.95307 100.889 5.46247 102.066 6.44208L100.497 8.04865C99.7127 7.46088 98.9283 7.14741 97.7516 7.14741C96.5749 7.22578 95.7904 7.65681 95.7904 8.79316C95.7904 9.69441 96.5749 10.1254 97.3593 10.2038L98.9283 10.4389C100.889 10.674 102.458 12.0063 102.458 14.2006ZM82.4546 11.8496C82.4546 15.3762 79.3168 18.2367 75.7867 18.2367C72.2566 18.2367 69.511 15.3762 69.511 11.8496C69.511 8.36213 72.2566 5.50165 75.7867 5.50165C79.3168 5.50165 82.4546 8.36213 82.4546 11.8496ZM75.7867 0.0158081C69.511 0.0158081 64.0198 5.26654 64.0198 11.8104L56.5674 22.4294C56.1752 22.3898 56.1752 22.351 55.783 22.351C54.214 22.351 52.6451 22.8212 51.0762 23.6049L17.5798 10.1254C16.6776 6.12861 13.1083 3.15058 8.87224 3.15058C4.00859 3.15058 0 7.14741 0 12.0455C0 16.9044 4.00859 20.9012 8.87224 20.9012C10.5592 20.9012 12.0885 20.4702 13.4225 19.6473L47.1543 33.1268C47.9388 37.2412 51.4688 39.9841 55.7834 39.9841C60.0979 39.9841 64.0202 36.4575 64.4124 32.108L75.7871 23.8009C82.455 23.8009 87.9462 18.4718 87.9462 11.8887C87.9458 5.34491 82.4546 0.0158081 75.7867 0.0158081ZM75.7867 3.93427C80.4935 3.93427 84.0235 7.50007 84.0235 11.8887C84.0235 16.3166 80.4935 19.8824 75.7867 19.8824C71.4722 19.8824 67.9421 16.3166 67.9421 11.8887C67.9421 7.50007 71.4722 3.93427 75.7867 3.93427ZM8.87224 5.50165C11.3825 5.50165 13.579 6.87311 14.6776 8.9499L11.4217 7.65681C8.7938 6.71638 5.8913 8.00947 4.83227 10.5957C3.81248 13.221 4.98917 16.1599 7.53866 17.2962L10.2843 18.3934C9.85243 18.5109 9.38214 18.5501 8.87185 18.5501C5.26373 18.5501 2.36083 15.6505 2.36083 12.0455C2.36122 8.40131 5.26373 5.50165 8.87224 5.50165ZM55.783 24.7021C59.313 24.7021 62.0586 27.641 62.0586 31.2459C62.0586 34.8901 59.313 37.633 55.783 37.633C53.0373 37.633 51.0762 36.4575 49.8995 34.3023C51.0762 34.8901 51.8607 35.282 53.0373 35.6738C55.783 36.8493 58.5286 35.282 59.7053 32.7741C60.4897 30.3451 59.7053 27.0144 56.9597 25.9564L54.214 24.8592C54.6063 24.7805 55.3907 24.7021 55.783 24.7021Z" fill="white"/>
</svg>
