<svg width="246" height="38" viewBox="0 0 246 38" fill="none" xmlns="http://www.w3.org/2000/svg">
<path d="M231 1.10938H229.875L230.133 2.20399L238.133 36.204L238.295 36.8906H239H243H244.125L243.867 35.796L235.867 1.79601L235.705 1.10938H235H231Z" fill="#57576A" stroke="#20202E" stroke-width="1.78125"/>
<path d="M222 1.10938H220.875L221.133 2.20399L229.133 36.204L229.295 36.8906H230H234H235.125L234.867 35.796L226.867 1.79601L226.705 1.10938H226H222Z" fill="#57576A" stroke="#20202E" stroke-width="1.78125"/>
<path d="M213 1.10938H211.875L212.133 2.20399L220.133 36.204L220.295 36.8906H221H225H226.125L225.867 35.796L217.867 1.79601L217.705 1.10938H217H213Z" fill="#57576A" stroke="#20202E" stroke-width="1.78125"/>
<path d="M2 1.10938H1.10938V2V36V36.8906H2H216H217.137L216.865 35.7866L208.473 1.78657L208.305 1.10938H207.608H2Z" fill="#57576A" stroke="#20202E" stroke-width="1.78125"/>
<path d="M30.298 24.07L26.336 14.2H28.716L31.278 21.102L33.84 14.2H36.164L32.202 24.07H30.298ZM37.2206 15.67V13.78H39.4606V15.67H37.2206ZM37.2766 24V16.496H39.4046V24H37.2766ZM44.4832 24.14C43.5498 24.14 42.7472 23.7947 42.0752 23.104C41.4032 22.404 41.0672 21.4567 41.0672 20.262V20.234C41.0672 19.0393 41.3985 18.0967 42.0612 17.406C42.7332 16.706 43.5405 16.356 44.4832 16.356C45.4165 16.356 46.1958 16.7293 46.8212 17.476V13.78H48.9492V24H46.8212V22.922C46.2332 23.734 45.4538 24.14 44.4832 24.14ZM43.7272 21.76C44.0818 22.1427 44.5158 22.334 45.0292 22.334C45.5425 22.334 45.9718 22.1427 46.3172 21.76C46.6718 21.368 46.8492 20.8687 46.8492 20.262V20.234C46.8492 19.6273 46.6718 19.1327 46.3172 18.75C45.9718 18.358 45.5425 18.162 45.0292 18.162C44.5158 18.162 44.0818 18.3533 43.7272 18.736C43.3725 19.1187 43.1952 19.618 43.1952 20.234V20.262C43.1952 20.8687 43.3725 21.368 43.7272 21.76ZM54.4064 24.168C53.2678 24.168 52.3298 23.8087 51.5924 23.09C50.8551 22.362 50.4864 21.4287 50.4864 20.29V20.262C50.4864 19.17 50.8364 18.246 51.5364 17.49C52.2364 16.734 53.1231 16.356 54.1964 16.356C55.3818 16.356 56.2871 16.748 56.9124 17.532C57.5378 18.316 57.8504 19.282 57.8504 20.43C57.8504 20.5233 57.8411 20.71 57.8224 20.99H52.6004C52.7031 21.466 52.9131 21.83 53.2304 22.082C53.5478 22.334 53.9491 22.46 54.4344 22.46C55.0784 22.46 55.6851 22.2033 56.2544 21.69L57.4724 22.768C56.7164 23.7013 55.6944 24.168 54.4064 24.168ZM52.5724 19.66H55.7784C55.7131 19.1747 55.5404 18.7873 55.2604 18.498C54.9898 18.2087 54.6351 18.064 54.1964 18.064C53.7578 18.064 53.3984 18.2087 53.1184 18.498C52.8384 18.778 52.6564 19.1653 52.5724 19.66ZM63.1184 24.168C61.9704 24.168 61.009 23.7947 60.2344 23.048C59.4597 22.3013 59.0724 21.382 59.0724 20.29V20.262C59.0724 19.17 59.4597 18.246 60.2344 17.49C61.0184 16.734 61.989 16.356 63.1464 16.356C64.2944 16.356 65.2557 16.7293 66.0304 17.476C66.805 18.2227 67.1924 19.142 67.1924 20.234V20.262C67.1924 21.354 66.8004 22.278 66.0164 23.034C65.2417 23.79 64.2757 24.168 63.1184 24.168ZM63.1464 22.334C63.7344 22.334 64.2057 22.138 64.5604 21.746C64.915 21.354 65.0924 20.8687 65.0924 20.29V20.262C65.0924 19.6927 64.9057 19.2073 64.5324 18.806C64.1684 18.3953 63.697 18.19 63.1184 18.19C62.5304 18.19 62.059 18.386 61.7044 18.778C61.3497 19.17 61.1724 19.6553 61.1724 20.234V20.262C61.1724 20.8313 61.3544 21.3213 61.7184 21.732C62.0917 22.1333 62.5677 22.334 63.1464 22.334ZM77.8725 24.168C76.3512 24.168 75.1098 23.6967 74.1485 22.754C73.1965 21.802 72.7205 20.5933 72.7205 19.128V19.1C72.7205 17.6907 73.2105 16.496 74.1905 15.516C75.1705 14.5267 76.3932 14.032 77.8585 14.032C78.6985 14.032 79.4172 14.144 80.0145 14.368C80.6118 14.5827 81.1765 14.9187 81.7085 15.376L80.3505 17.014C79.9492 16.678 79.5525 16.4307 79.1605 16.272C78.7778 16.104 78.3205 16.02 77.7885 16.02C77.0045 16.02 76.3372 16.3187 75.7865 16.916C75.2452 17.5133 74.9745 18.232 74.9745 19.072V19.1C74.9745 19.996 75.2498 20.738 75.8005 21.326C76.3605 21.914 77.0745 22.208 77.9425 22.208C78.7452 22.208 79.4218 22.012 79.9725 21.62V20.22H77.8025V18.358H82.0585V22.614C80.8358 23.65 79.4405 24.168 77.8725 24.168ZM86.1738 24.14C85.4364 24.14 84.8204 23.9393 84.3258 23.538C83.8404 23.1273 83.5978 22.5627 83.5978 21.844V21.816C83.5978 21.032 83.8684 20.4393 84.4098 20.038C84.9604 19.6273 85.6978 19.422 86.6218 19.422C87.2284 19.422 87.8398 19.5247 88.4558 19.73V19.604C88.4558 18.6893 87.9191 18.232 86.8458 18.232C86.1644 18.232 85.4738 18.3673 84.7738 18.638L84.2418 17.014C85.1844 16.6127 86.1551 16.412 87.1538 16.412C88.2831 16.412 89.1278 16.692 89.6878 17.252C90.2291 17.7933 90.4998 18.5913 90.4998 19.646V24H88.4418V23.188C87.8724 23.8227 87.1164 24.14 86.1738 24.14ZM86.8178 22.67C87.3218 22.67 87.7231 22.5487 88.0218 22.306C88.3298 22.0633 88.4838 21.746 88.4838 21.354V20.976C88.0638 20.7893 87.6111 20.696 87.1258 20.696C86.6684 20.696 86.3091 20.7847 86.0478 20.962C85.7864 21.1393 85.6558 21.396 85.6558 21.732V21.76C85.6558 22.04 85.7631 22.264 85.9778 22.432C86.1924 22.5907 86.4724 22.67 86.8178 22.67ZM92.3309 24V16.496H94.4589V17.56C95.0842 16.7573 95.8216 16.356 96.6709 16.356C97.6789 16.356 98.3836 16.7527 98.7849 17.546C99.4476 16.7527 100.269 16.356 101.249 16.356C102.052 16.356 102.672 16.594 103.111 17.07C103.559 17.5367 103.783 18.218 103.783 19.114V24H101.655V19.814C101.655 18.7967 101.24 18.288 100.409 18.288C100.008 18.288 99.6902 18.4187 99.4569 18.68C99.2329 18.9413 99.1209 19.3193 99.1209 19.814V24H96.9929V19.814C96.9929 18.7967 96.5776 18.288 95.7469 18.288C95.3456 18.288 95.0282 18.4187 94.7949 18.68C94.5709 18.9413 94.4589 19.3193 94.4589 19.814V24H92.3309ZM109.19 24.168C108.051 24.168 107.113 23.8087 106.376 23.09C105.638 22.362 105.27 21.4287 105.27 20.29V20.262C105.27 19.17 105.62 18.246 106.32 17.49C107.02 16.734 107.906 16.356 108.98 16.356C110.165 16.356 111.07 16.748 111.696 17.532C112.321 18.316 112.634 19.282 112.634 20.43C112.634 20.5233 112.624 20.71 112.606 20.99H107.384C107.486 21.466 107.696 21.83 108.014 22.082C108.331 22.334 108.732 22.46 109.218 22.46C109.862 22.46 110.468 22.2033 111.038 21.69L112.256 22.768C111.5 23.7013 110.478 24.168 109.19 24.168ZM107.356 19.66H110.562C110.496 19.1747 110.324 18.7873 110.044 18.498C109.773 18.2087 109.418 18.064 108.98 18.064C108.541 18.064 108.182 18.2087 107.902 18.498C107.622 18.778 107.44 19.1653 107.356 19.66ZM122.127 24.14C120.512 24.14 119.126 23.6173 117.969 22.572L119.243 21.046C120.223 21.8393 121.198 22.236 122.169 22.236C122.617 22.236 122.962 22.1567 123.205 21.998C123.457 21.83 123.583 21.6013 123.583 21.312V21.284C123.583 21.004 123.452 20.7753 123.191 20.598C122.93 20.4207 122.402 20.234 121.609 20.038C121.058 19.898 120.606 19.7627 120.251 19.632C119.896 19.492 119.565 19.31 119.257 19.086C118.949 18.862 118.72 18.582 118.571 18.246C118.431 17.91 118.361 17.5087 118.361 17.042V17.014C118.361 16.1273 118.678 15.4133 119.313 14.872C119.948 14.3307 120.774 14.06 121.791 14.06C123.172 14.06 124.386 14.4753 125.431 15.306L124.311 16.93C123.368 16.286 122.519 15.964 121.763 15.964C121.352 15.964 121.04 16.0433 120.825 16.202C120.61 16.3607 120.503 16.566 120.503 16.818V16.846C120.503 17.1633 120.634 17.4013 120.895 17.56C121.166 17.7093 121.74 17.9007 122.617 18.134C123.681 18.4233 124.465 18.7827 124.969 19.212C125.473 19.6413 125.725 20.262 125.725 21.074V21.102C125.725 22.054 125.394 22.8007 124.731 23.342C124.078 23.874 123.21 24.14 122.127 24.14ZM129.864 24.14C129.052 24.14 128.422 23.8973 127.974 23.412C127.535 22.9173 127.316 22.2313 127.316 21.354V16.496H129.444V20.682C129.444 21.6993 129.873 22.208 130.732 22.208C131.152 22.208 131.479 22.0773 131.712 21.816C131.945 21.5547 132.062 21.1767 132.062 20.682V16.496H134.19V24H132.062V22.936C131.437 23.7387 130.704 24.14 129.864 24.14ZM136.095 26.24V16.496H138.223V17.574C138.811 16.762 139.59 16.356 140.561 16.356C141.494 16.356 142.297 16.706 142.969 17.406C143.641 18.0967 143.977 19.0393 143.977 20.234V20.262C143.977 21.4567 143.641 22.404 142.969 23.104C142.306 23.7947 141.503 24.14 140.561 24.14C139.627 24.14 138.848 23.7667 138.223 23.02V26.24H136.095ZM138.713 21.76C139.067 22.1427 139.501 22.334 140.015 22.334C140.528 22.334 140.962 22.1427 141.317 21.76C141.671 21.3773 141.849 20.878 141.849 20.262V20.234C141.849 19.6273 141.671 19.1327 141.317 18.75C140.962 18.358 140.528 18.162 140.015 18.162C139.501 18.162 139.067 18.358 138.713 18.75C138.367 19.1327 138.195 19.6273 138.195 20.234V20.262C138.195 20.8687 138.367 21.368 138.713 21.76ZM145.542 26.24V16.496H147.67V17.574C148.258 16.762 149.037 16.356 150.008 16.356C150.941 16.356 151.744 16.706 152.416 17.406C153.088 18.0967 153.424 19.0393 153.424 20.234V20.262C153.424 21.4567 153.088 22.404 152.416 23.104C151.753 23.7947 150.951 24.14 150.008 24.14C149.075 24.14 148.295 23.7667 147.67 23.02V26.24H145.542ZM148.16 21.76C148.515 22.1427 148.949 22.334 149.462 22.334C149.975 22.334 150.409 22.1427 150.764 21.76C151.119 21.3773 151.296 20.878 151.296 20.262V20.234C151.296 19.6273 151.119 19.1327 150.764 18.75C150.409 18.358 149.975 18.162 149.462 18.162C148.949 18.162 148.515 18.358 148.16 18.75C147.815 19.1327 147.642 19.6273 147.642 20.234V20.262C147.642 20.8687 147.815 21.368 148.16 21.76ZM155.087 24V13.78H157.215V24H155.087ZM159.256 15.67V13.78H161.496V15.67H159.256ZM159.312 24V16.496H161.44V24H159.312ZM166.994 24.168C165.856 24.168 164.918 23.8087 164.18 23.09C163.443 22.362 163.074 21.4287 163.074 20.29V20.262C163.074 19.17 163.424 18.246 164.124 17.49C164.824 16.734 165.711 16.356 166.784 16.356C167.97 16.356 168.875 16.748 169.5 17.532C170.126 18.316 170.438 19.282 170.438 20.43C170.438 20.5233 170.429 20.71 170.41 20.99H165.188C165.291 21.466 165.501 21.83 165.818 22.082C166.136 22.334 166.537 22.46 167.022 22.46C167.666 22.46 168.273 22.2033 168.842 21.69L170.06 22.768C169.304 23.7013 168.282 24.168 166.994 24.168ZM165.16 19.66H168.366C168.301 19.1747 168.128 18.7873 167.848 18.498C167.578 18.2087 167.223 18.064 166.784 18.064C166.346 18.064 165.986 18.2087 165.706 18.498C165.426 18.778 165.244 19.1653 165.16 19.66ZM172.024 24V16.496H174.152V18.008C174.638 16.86 175.436 16.3093 176.546 16.356V18.582H176.434C175.706 18.582 175.142 18.8013 174.74 19.24C174.348 19.6787 174.152 20.3413 174.152 21.228V24H172.024ZM180.508 24.14C179.332 24.14 178.258 23.762 177.288 23.006L178.198 21.606C179.019 22.2033 179.808 22.502 180.564 22.502C181.161 22.502 181.46 22.3153 181.46 21.942V21.914C181.46 21.8487 181.446 21.788 181.418 21.732C181.399 21.676 181.357 21.6293 181.292 21.592C181.226 21.5453 181.166 21.5033 181.11 21.466C181.054 21.4287 180.97 21.3913 180.858 21.354C180.746 21.3167 180.652 21.284 180.578 21.256C180.503 21.228 180.391 21.1953 180.242 21.158C180.102 21.1113 179.99 21.074 179.906 21.046C179.598 20.962 179.327 20.8687 179.094 20.766C178.87 20.6633 178.636 20.528 178.394 20.36C178.16 20.192 177.978 19.9773 177.848 19.716C177.726 19.4453 177.666 19.1373 177.666 18.792V18.764C177.666 18.0267 177.927 17.448 178.45 17.028C178.972 16.5987 179.626 16.384 180.41 16.384C181.399 16.384 182.332 16.6733 183.21 17.252L182.398 18.722C181.604 18.2553 180.928 18.022 180.368 18.022C180.116 18.022 179.92 18.0733 179.78 18.176C179.649 18.2693 179.584 18.3907 179.584 18.54V18.568C179.584 18.7453 179.71 18.8993 179.962 19.03C180.223 19.1607 180.606 19.3053 181.11 19.464C181.427 19.5667 181.698 19.6693 181.922 19.772C182.146 19.8747 182.379 20.0147 182.622 20.192C182.864 20.36 183.051 20.57 183.182 20.822C183.312 21.074 183.378 21.3633 183.378 21.69V21.718C183.378 22.5207 183.112 23.1273 182.58 23.538C182.057 23.9393 181.366 24.14 180.508 24.14Z" fill="#DEE1FF"/>
</svg>
