<svg width="23" height="23" viewBox="0 0 23 23" fill="none" xmlns="http://www.w3.org/2000/svg">
<g filter="url(#filter0_b_62_2789)">
<path fill-rule="evenodd" clip-rule="evenodd" d="M11.4146 22.8148C17.5676 22.8148 22.5554 17.8269 22.5554 11.674C22.5554 5.5212 17.5676 0.533325 11.4146 0.533325C5.26179 0.533325 0.273926 5.5212 0.273926 11.674C0.273926 17.8269 5.26179 22.8148 11.4146 22.8148ZM13.1342 9.14097C14.0838 8.19127 14.0838 6.65157 13.1342 5.70188C12.1845 4.7522 10.6448 4.7522 9.69512 5.70188C8.74548 6.65157 8.74548 8.19127 9.69512 9.14097C10.6448 10.0906 12.1845 10.0906 13.1342 9.14097ZM13.9478 13.3936C14.8974 14.3433 16.4372 14.3433 17.3868 13.3936C18.3365 12.4439 18.3365 10.9042 17.3868 9.95452C16.4372 9.00488 14.8974 9.00488 13.9478 9.95452C12.9981 10.9042 12.9981 12.4439 13.9478 13.3936ZM13.1342 17.6462C14.0838 16.6966 14.0838 15.1568 13.1342 14.2072C12.1845 13.2575 10.6448 13.2575 9.69512 14.2072C8.74548 15.1568 8.74548 16.6966 9.69512 17.6462C10.6448 18.5959 12.1845 18.5959 13.1342 17.6462ZM5.44246 13.3936C4.4928 12.4439 4.4928 10.9042 5.44246 9.95452C6.39217 9.00488 7.93187 9.00488 8.88157 9.95452C9.83122 10.9042 9.83123 12.4439 8.88157 13.3936C7.93187 14.3433 6.39217 14.3433 5.44246 13.3936Z" fill="white"/>
</g>
<defs>
<filter id="filter0_b_62_2789" x="-2.51125" y="-2.25185" width="27.8519" height="27.8518" filterUnits="userSpaceOnUse" color-interpolation-filters="sRGB">
<feFlood flood-opacity="0" result="BackgroundImageFix"/>
<feGaussianBlur in="BackgroundImage" stdDeviation="1.39259"/>
<feComposite in2="SourceAlpha" operator="in" result="effect1_backgroundBlur_62_2789"/>
<feBlend mode="normal" in="SourceGraphic" in2="effect1_backgroundBlur_62_2789" result="shape"/>
</filter>
</defs>
</svg>
